<svg width="20" height="20" viewBox="0 0 20 20" fill="none" xmlns="http://www.w3.org/2000/svg">
<path d="M3.16178 10.0242C3.60943 7.78608 3.83324 6.66697 4.5728 5.94619C4.70949 5.81297 4.85737 5.69175 5.0148 5.58384C5.86662 5 7.00788 5 9.29042 5H10.7095C12.9921 5 14.1333 5 14.9852 5.58384C15.1426 5.69175 15.2904 5.81297 15.4272 5.94619C16.1667 6.66697 16.3905 7.78608 16.8382 10.0242C17.4808 13.2376 17.8022 14.8442 17.0624 15.9827C16.9285 16.1889 16.7722 16.3796 16.5963 16.5513C15.625 17.5 13.9865 17.5 10.7095 17.5H9.29042C6.01343 17.5 4.37495 17.5 3.40364 16.5513C3.22777 16.3796 3.07143 16.1889 2.9375 15.9827C2.19778 14.8442 2.51912 13.2376 3.16178 10.0242Z" stroke="#2D3B36"/>
<path opacity="0.5" d="M12.5001 8.33333C12.9603 8.33333 13.3334 7.96023 13.3334 7.5C13.3334 7.03976 12.9603 6.66666 12.5001 6.66666C12.0398 6.66666 11.6667 7.03976 11.6667 7.5C11.6667 7.96023 12.0398 8.33333 12.5001 8.33333Z" fill="#2D3B36"/>
<path opacity="0.5" d="M7.50008 8.33333C7.96032 8.33333 8.33341 7.96023 8.33341 7.5C8.33341 7.03976 7.96032 6.66666 7.50008 6.66666C7.03984 6.66666 6.66675 7.03976 6.66675 7.5C6.66675 7.96023 7.03984 8.33333 7.50008 8.33333Z" fill="#2D3B36"/>
<path opacity="0.5" d="M7.5 5V4.16666C7.5 2.78596 8.61925 1.66666 10 1.66666C11.3807 1.66666 12.5 2.78596 12.5 4.16666V5" stroke="#2D3B36" stroke-linecap="round"/>
</svg>
