<svg width="20" height="20" viewBox="0 0 20 20" fill="none" xmlns="http://www.w3.org/2000/svg">
<path d="M17.9056 16.6406C16.6704 14.5062 14.7314 13.0086 12.4782 12.3734C13.5737 11.8166 14.4496 10.9071 14.9649 9.79147C15.4801 8.67588 15.6047 7.41927 15.3184 6.22426C15.0321 5.02924 14.3516 3.96548 13.3868 3.20449C12.422 2.44349 11.2289 2.02963 10.0001 2.02963C8.77129 2.02963 7.57827 2.44349 6.61343 3.20449C5.64859 3.96548 4.96816 5.02924 4.68186 6.22426C4.39557 7.41927 4.52009 8.67588 5.03534 9.79147C5.5506 10.9071 6.42657 11.8166 7.52199 12.3734C5.26887 13.0078 3.3298 14.5055 2.09465 16.6406C2.06073 16.694 2.03796 16.7536 2.0277 16.816C2.01744 16.8784 2.0199 16.9422 2.03494 17.0036C2.04998 17.065 2.07729 17.1227 2.11522 17.1733C2.15315 17.2239 2.20092 17.2663 2.25565 17.2979C2.31038 17.3296 2.37095 17.3498 2.43371 17.3574C2.49647 17.365 2.56012 17.3599 2.62084 17.3423C2.68155 17.3247 2.73808 17.295 2.78701 17.2549C2.83595 17.2149 2.87628 17.1654 2.90559 17.1094C4.40637 14.5164 7.05793 12.9687 10.0001 12.9687C12.9423 12.9687 15.5939 14.5164 17.0946 17.1094C17.124 17.1654 17.1643 17.2149 17.2132 17.2549C17.2622 17.295 17.3187 17.3247 17.3794 17.3423C17.4401 17.3599 17.5038 17.365 17.5665 17.3574C17.6293 17.3498 17.6898 17.3296 17.7446 17.2979C17.7993 17.2663 17.8471 17.2239 17.885 17.1733C17.9229 17.1227 17.9502 17.065 17.9653 17.0036C17.9803 16.9422 17.9828 16.8784 17.9725 16.816C17.9623 16.7536 17.9395 16.694 17.9056 16.6406ZM5.46887 7.5C5.46887 6.6038 5.73462 5.72773 6.23252 4.98257C6.73042 4.23741 7.4381 3.65663 8.26608 3.31367C9.09406 2.97071 10.0051 2.88097 10.8841 3.05581C11.7631 3.23065 12.5705 3.66221 13.2042 4.29592C13.8379 4.92963 14.2695 5.73702 14.4443 6.61599C14.6191 7.49497 14.5294 8.40605 14.1864 9.23403C13.8435 10.062 13.2627 10.7697 12.5175 11.2676C11.7724 11.7655 10.8963 12.0312 10.0001 12.0312C8.7988 12.0298 7.6471 11.5519 6.79764 10.7025C5.94818 9.85301 5.47031 8.70131 5.46887 7.5Z" fill="#2D3B36"/>
</svg>
